<?xml version="1.0" encoding="utf-8"?>
<!-- Generator: Adobe Illustrator 22.0.1, SVG Export Plug-In . SVG Version: 6.00 Build 0)  -->
<svg version="1.1" id="Layer_1" xmlns="http://www.w3.org/2000/svg" xmlns:xlink="http://www.w3.org/1999/xlink" x="0px" y="0px"
	 viewBox="0 0 331.2 331.2" style="enable-background:new 0 0 331.2 331.2;" xml:space="preserve">
<style type="text/css">
	.st0{fill:#003B5C;}
	.st1{fill:#FFFFFF;}
</style>
<rect x="0" y="0" class="st0" width="331.2" height="331.2"/>
<g>
	<g>
		<g>
			<path class="st1" d="M111.1,245l-23.2-60h14.6l16.6,46.2l16.6-46.2h14.6l-23.1,60H111.1z"/>
			<path class="st1" d="M156.9,245v-60h12.8v60H156.9z"/>
			<path class="st1" d="M182.8,221v-36.1h13v35.6c0,8.4,4.9,14.1,14.1,14.1c9.3,0,14-5.8,14-14.1v-35.6h13v36
				c0,14.9-8.8,25.1-27.1,25.1C191.6,246.1,182.8,235.8,182.8,221z"/>
		</g>
		<g>
			<path class="st1" d="M100.8,130.4c0,0,19.2-22.1,42.2-23.1c22.9-0.9,42.6,8.6,56,8.1c13.5-0.5,22.8-4.4,30.8-10.3
				c0-0.2,2.3,4.4-2.8,6.2c-5.2,1.7-15.5,5.9-6.9,12.5c2.8,1.8,5.8,3.5,0.3,3.5c-5.5-0.1-37-0.6-44,21.7c-0.2,0.1-3.8-3-4.6-3.2
				c-0.9-0.2-6.4,5.9-6.9,9c0,0-2.2-4.4-2.7-6.6c-0.5-2.3-0.8-5.3-0.8-5.3c-0.7-0.6-6.3,2.2-7.1,3.3c0.1-2.2-0.6-11.1,12.9-17.1
				c-10.5,0.4-22.6,1.1-37.9,14.9c0,0-0.9-9.6,2.7-17.4C131.1,126.2,119.1,123.4,100.8,130.4z"/>
			<path class="st1" d="M130.2,103.3L154.8,85l22.3,14l2.5-0.9L164,87.5l12.8-7.8l32,32c0,0-7.9,2.6-20.2-0.4
				c-12.3-2.9-24-8.2-37-9.3C139.7,101.1,130.2,103.3,130.2,103.3z"/>
		</g>
	</g>
</g>
</svg>
